dummy_motion.mot
version=1
nRows=30
nColumns=11
inDegrees=No
endheader
                time	         pelvis_tilt	           pelvis_tx	           pelvis_ty	       hip_flexion_l	       hip_flexion_r	        knee_angle_l	        knee_angle_r	       ankle_angle_l	       ankle_angle_r	    lumbar_extension	
          2.50050010	          0.00000000	          0.00000000	          0.00000000	         -0.30958294	          0.46670659	         -0.43555131	         -0.87298055	          0.00276211	          0.03232056	          0.43193134	
          2.50250050	          0.00000000	          0.00000000	          0.00000000	         -0.78218241	         -0.05254008	         -0.31815212	         -0.14032265	          0.44240842	          0.42971389	         -0.07475256	
          2.50450090	          0.00000000	          0.00000000	          0.00000000	          0.72520496	          0.26338855	         -0.95336468	         -1.35699057	         -0.41038443	          0.34617257	         -0.28531733	
          2.50650130	          0.00000000	          0.00000000	          0.00000000	          0.77062175	          0.27013968	         -0.97511731	         -1.40739134	          0.13112222	         -0.44787757	         -0.32029430	
          2.50850170	          0.00000000	          0.00000000	          0.00000000	          0.35219006	         -0.42407653	         -1.37463382	         -1.14192392	          0.12396706	         -0.22663405	          0.50649051	
          2.51050210	          0.00000000	          0.00000000	          0.00000000	         -0.77419167	         -0.32691405	         -1.37864835	         -0.44087929	          0.45322294	          0.38399975	          0.27372265	
          2.51250250	          0.00000000	          0.00000000	          0.00000000	         -0.32139634	          0.29582298	         -0.26883427	         -1.45633486	          0.29881841	          0.44849808	          0.47033069	
          2.51450290	          0.00000000	          0.00000000	          0.00000000	         -0.05183273	         -0.29137171	         -0.66756247	         -1.13976782	         -0.45214622	         -0.23069081	         -0.14572446	
          2.51650330	          0.00000000	          0.00000000	          0.00000000	         -0.28337980	          0.36696008	         -0.05776331	         -0.39716957	         -0.09924255	          0.48185543	          0.32435545	
          2.51850370	          0.00000000	          0.00000000	          0.00000000	         -0.52682243	         -0.80653968	         -0.22079694	         -1.51446815	          0.38270047	         -0.40572394	         -0.27968394	
          2.52050410	          0.00000000	          0.00000000	          0.00000000	          0.65557259	          0.09791189	         -1.31905373	         -1.55310762	         -0.51008698	         -0.29357551	          0.15722343	
          2.52250450	          0.00000000	          0.00000000	          0.00000000	         -0.30635404	         -0.54070626	         -0.72144127	         -0.61285570	         -0.16355577	         -0.23661935	          0.13826669	
          2.52450490	          0.00000000	          0.00000000	          0.00000000	          0.52607714	          0.47071419	         -1.51900717	         -0.94409985	          0.31116336	          0.03064833	          0.06700046	
          2.52650530	          0.00000000	          0.00000000	          0.00000000	         -0.23824235	          0.37655983	         -1.13603381	         -1.22154461	          0.05963379	         -0.10409270	          0.30566589	
          2.52850570	          0.00000000	          0.00000000	          0.00000000	         -0.23620124	          0.34081893	         -1.11100330	         -0.33941634	         -0.35384510	         -0.03868592	          0.24405364	
          2.53050610	          0.00000000	          0.00000000	          0.00000000	         -0.32704820	          0.73659924	         -0.21828390	         -0.88157362	         -0.27247412	          0.27679540	          0.27677618	
          2.53250650	          0.00000000	          0.00000000	          0.00000000	         -0.75872125	         -0.62895700	         -0.07581382	         -1.30577963	         -0.38336517	         -0.25865405	         -0.00235914	
          2.53450690	          0.00000000	          0.00000000	          0.00000000	         -0.32462426	         -0.21574146	         -1.52472411	         -0.88734103	         -0.51862548	         -0.02865606	          0.35156092	
          2.53650730	          0.00000000	          0.00000000	          0.00000000	         -0.65955421	         -0.01234963	         -0.29702559	         -1.03729864	          0.00336239	          0.38418278	          0.08102416	
          2.53850770	          0.00000000	          0.00000000	          0.00000000	         -0.80324931	         -0.10818144	         -0.90126542	         -0.03224475	         -0.27048464	         -0.15436073	         -0.42686489	
          2.54050810	          0.00000000	          0.00000000	          0.00000000	          0.06723806	         -0.85955323	         -1.53692816	         -0.58566875	          0.37576262	          0.51988028	         -0.48885259	
          2.54250850	          0.00000000	          0.00000000	          0.00000000	         -0.10724028	         -0.26095296	         -1.35463744	         -0.36973083	          0.15962894	          0.24740501	          0.50314044	
          2.54450890	          0.00000000	          0.00000000	          0.00000000	         -0.61909833	          0.70582567	         -1.54859452	         -1.12135663	          0.11928714	         -0.19201094	         -0.50026156	
          2.54650930	          0.00000000	          0.00000000	          0.00000000	         -0.56075402	         -0.60253426	         -0.39001741	         -1.27316774	         -0.06539842	          0.34779387	          0.50530512	
          2.54850970	          0.00000000	          0.00000000	          0.00000000	         -0.40009357	          0.05944115	         -1.16640183	         -0.38939830	         -0.48666463	          0.22848689	          0.01717392	
          2.55051010	          0.00000000	          0.00000000	          0.00000000	         -0.33139684	          0.01840283	         -0.30159766	         -1.15610914	         -0.18139248	          0.30268793	          0.44937966	
          2.55251050	          0.00000000	          0.00000000	          0.00000000	          0.67912315	          0.51315265	         -1.34176191	         -0.34649508	          0.37531924	          0.20693533	         -0.24078673	
          2.55451090	          0.00000000	          0.00000000	          0.00000000	          0.33230154	          0.66490774	         -0.05167677	         -0.27353331	         -0.43712344	          0.52036260	         -0.36490481	
          2.55651130	          0.00000000	          0.00000000	          0.00000000	         -0.69226182	         -0.48761705	         -0.70114010	         -0.01963082	         -0.20223701	         -0.12714021	          0.03001532	
          2.55851170	          0.00000000	          0.00000000	          0.00000000	         -0.69626976	          0.24518831	         -0.30918216	         -0.27999067	          0.05459867	          0.15142285	          0.42240868	
